<?xml version="1.0" encoding="UTF-8" standalone="no"?>
<svg
   width="1024"
   height="1024"
   viewBox="0 0 1024 1024"
   version="1.1"
   id="svg4"
   sodipodi:docname="cbc828e9-de13-4fed-8fdd-736f008c91c1.svg"
   xmlns:inkscape="http://www.inkscape.org/namespaces/inkscape"
   xmlns:sodipodi="http://sodipodi.sourceforge.net/DTD/sodipodi-0.dtd"
   xmlns="http://www.w3.org/2000/svg"
   xmlns:svg="http://www.w3.org/2000/svg">
  <defs
     id="defs4" />
  <sodipodi:namedview
     id="namedview4"
     pagecolor="#ffffff"
     bordercolor="#000000"
     borderopacity="0.25"
     inkscape:showpageshadow="2"
     inkscape:pageopacity="0.0"
     inkscape:pagecheckerboard="0"
     inkscape:deskcolor="#d1d1d1" />
  <g
     id="g4">
    <path
       d="M 541.79 982.05 C537.09,984.52 533.31,984.52 529.50,982.05 C527.85,980.98 496.39,950.05 459.58,913.30 C376.57,830.43 367.29,821.05 368.33,821.02 C368.79,821.01 367.44,819.04 365.33,816.64 C358.86,809.27 351.07,791.70 347.42,776.22 C343.21,758.32 343.86,737.19 349.14,721.00 C352.72,710.02 360.61,694.28 363.25,692.87 C364.24,692.33 364.77,691.43 364.41,690.86 C364.06,690.29 402.06,651.50 448.87,604.66 L 533.96 519.50 L 539.55 519.55 L 545.14 519.61 L 625.95 600.55 C670.40,645.07 708.89,684.42 711.49,688.00 C717.87,696.77 723.39,708.00 726.04,717.58 C727.24,721.94 728.44,726.17 728.71,727.00 C730.87,733.59 730.74,761.53 728.51,772.33 C725.64,786.18 717.50,806.68 713.58,809.93 C711.71,811.49 711.46,813.39 713.25,812.49 C713.25,812.48 713.26,812.48 713.26,812.48 C713.43,812.65 676.16,850.03 630.00,895.98 C583.53,942.25 543.83,980.98 541.79,982.05 ZM 469.00 853.25 C506.87,891.06 538.26,922.00 538.75,922.00 C540.26,922.00 670.49,790.77 673.47,786.25 C675.01,783.91 676.68,782.00 677.19,782.00 C677.70,782.00 677.84,781.55 677.50,781.00 C677.16,780.45 677.36,780.00 677.94,780.00 C678.52,780.00 678.91,779.66 678.81,779.25 C678.51,778.07 682.39,768.00 683.14,768.00 C683.51,768.00 683.58,767.10 683.29,766.00 C683.00,764.90 683.26,764.00 683.86,764.00 C684.54,764.00 684.72,762.87 684.35,761.00 C683.99,759.22 684.17,758.00 684.78,758.00 C685.41,758.00 685.85,754.45 685.91,749.00 C685.96,743.97 685.59,740.00 685.06,740.00 C684.28,740.00 682.61,733.08 682.52,729.50 C682.51,728.95 682.26,728.28 681.97,728.00 C681.08,727.16 677.91,719.55 678.07,718.64 C678.26,717.52 540.76,579.91 539.79,580.25 C539.38,580.39 507.49,612.00 468.93,650.50 C393.32,725.99 394.79,724.33 391.51,738.24 C388.60,750.57 390.15,763.14 396.17,776.00 L 400.15 784.50 ZM 705.26 819.04 C703.09,822.14 704.26,821.35 708.55,816.83 C711.57,813.64 711.81,813.18 709.57,814.87 C707.96,816.08 706.02,817.96 705.26,819.04 Z"
       fill="rgb(18,162,192)"
       id="path1" />
    <path
       d="M 326.85 710.25 C337.04,720.56 345.66,729.00 345.99,729.00 C346.27,729.00 347.46,726.04 348.78,722.12 C343.84,738.16 343.30,758.73 347.42,776.22 C351.07,791.70 358.86,809.27 365.33,816.64 C367.44,819.04 368.79,821.01 368.33,821.02 C367.29,821.05 376.57,830.43 459.58,913.30 C496.39,950.05 527.85,980.98 529.50,982.05 C526.08,979.84 413.12,867.51 353.95,807.47 C302.40,755.18 276.95,728.11 271.31,719.58 C242.99,676.76 238.13,628.96 257.89,587.47 C265.87,570.72 270.99,564.01 292.98,541.50 C342.05,491.26 529.38,304.81 531.64,303.95 C535.22,302.59 539.68,302.78 542.80,304.43 C545.89,306.07 788.02,548.38 795.69,557.50 C823.66,590.80 833.87,633.73 823.35,673.84 C820.40,685.08 818.34,690.45 813.03,700.72 C806.92,712.55 801.68,720.55 794.90,728.39 C787.08,737.44 753.24,772.13 712.72,813.09 C713.09,812.70 713.27,812.50 713.26,812.48 C713.26,812.48 713.25,812.48 713.25,812.49 C711.46,813.39 711.71,811.49 713.58,809.93 C717.50,806.68 725.64,786.18 728.51,772.33 C730.74,761.53 730.87,733.59 728.71,727.00 C728.44,726.17 727.24,721.94 726.04,717.58 C725.55,715.81 724.96,713.99 724.29,712.14 C725.29,714.77 726.10,717.27 726.65,719.50 C727.61,723.35 728.76,726.94 729.22,727.47 C730.16,728.58 757.44,701.86 765.10,692.32 C777.83,676.46 784.67,652.28 782.05,632.39 C780.06,617.24 776.23,606.64 768.77,595.66 C766.14,591.79 722.76,547.83 651.06,476.39 L 537.52 363.25 L 425.01 475.25 C363.13,536.85 310.57,589.55 308.20,592.37 C303.08,598.49 296.63,611.18 294.43,619.50 C291.70,629.83 291.47,645.92 293.90,657.68 C298.17,678.30 303.19,686.32 326.85,710.25 ZM 541.79 982.05 C543.83,980.98 583.53,942.25 630.00,895.98 C647.48,878.58 663.68,862.41 677.06,849.03 C612.68,913.70 545.58,980.12 541.69,982.21 C540.00,983.11 538.30,983.65 536.63,983.82 C538.25,983.61 539.95,983.02 541.79,982.05 ZM 705.26 819.04 C706.02,817.96 707.96,816.08 709.57,814.87 C711.81,813.18 711.57,813.64 708.55,816.83 C704.26,821.35 703.09,822.14 705.26,819.04 ZM 349.67 719.44 C351.97,712.57 356.15,703.58 359.42,698.00 C356.24,703.46 352.18,712.22 349.67,719.44 ZM 715.51 694.02 C714.30,692.05 713.04,690.15 711.74,688.34 C711.99,688.65 712.18,688.89 712.31,689.07 C713.38,690.59 714.45,692.26 715.51,694.02 ZM 545.15 519.61 L 569.53 544.03 L 545.14 519.61 Z"
       fill="rgb(33,72,158)"
       id="path2" />
    <path
       d="M 235.60 629.00 L 245.39 638.50 L 246.46 628.71 C243.63,658.76 251.92,690.05 270.98,719.08 C270.87,719.08 270.63,719.18 270.29,719.38 C268.89,720.18 261.41,714.78 238.05,696.09 C195.07,661.72 178.36,642.90 163.13,611.71 C152.63,590.22 147.16,570.32 144.95,545.50 C142.77,521.16 146.91,494.98 157.03,469.00 C162.30,455.48 167.15,446.46 177.52,430.96 C179.52,427.97 180.81,425.86 182.18,423.81 C189.61,412.69 199.44,403.19 337.01,264.47 C372.48,228.71 430.07,170.55 464.99,135.22 L 528.48 71.00 L 539.53 71.00 L 710.61 242.25 C842.72,374.50 883.32,415.70 888.84,423.16 C892.78,428.47 896.00,433.04 896.00,433.32 C896.00,433.60 897.58,436.23 899.52,439.16 C904.90,447.32 914.68,467.76 917.93,477.65 C925.61,500.98 927.55,514.19 926.69,537.40 C925.72,563.62 920.25,585.37 908.49,609.77 C897.62,632.31 883.48,651.21 864.41,668.66 C853.67,678.49 831.10,697.35 821.04,704.91 C818.54,706.79 813.46,710.98 809.75,714.24 C806.04,717.49 803.00,719.88 803.00,719.55 C803.00,719.23 799.95,722.51 796.17,726.90 C802.34,719.53 807.31,711.80 813.03,700.72 C818.34,690.45 820.40,685.08 823.35,673.84 C828.23,655.24 828.65,636.03 824.91,617.45 C826.15,623.27 827.00,628.62 827.00,631.42 C827.00,633.88 827.40,636.13 827.90,636.44 C829.40,637.37 848.56,616.46 854.93,606.95 C869.43,585.27 877.25,561.61 878.63,535.32 C880.03,508.32 870.68,478.68 853.56,455.91 C847.49,447.83 776.88,376.90 662.00,263.49 C640.28,242.05 602.56,204.67 578.17,180.44 L 533.83 136.37 L 376.74 293.67 C261.36,409.20 218.34,452.89 214.72,458.22 C196.04,485.68 188.91,518.38 194.38,551.50 C196.79,566.11 200.01,576.03 207.04,590.50 C214.04,604.92 222.41,616.20 235.60,629.00 ZM 0.00 0.00 L 0.08 0.00 L 0.18 512.00 L 0.28 1024.00 L 0.00 1024.00 ZM 271.04 719.16 C271.13,719.30 271.22,719.44 271.31,719.58 C274.93,725.05 286.69,738.14 308.26,760.62 C283.25,734.68 270.13,720.23 270.91,719.35 C270.98,719.27 271.02,719.21 271.04,719.16 ZM 678.64 847.44 C613.76,912.68 545.76,980.02 541.69,982.21 C545.59,980.11 612.68,913.70 677.05,849.03 L 677.06 849.03 ZM 436.55 890.46 C471.01,924.85 503.67,957.21 519.55,972.64 C507.20,960.67 484.80,938.56 459.95,913.80 C451.93,905.81 444.13,898.03 436.55,890.46 ZM 247.39 621.30 C249.20,609.41 252.53,598.73 257.89,587.47 C252.69,598.38 249.20,609.72 247.39,621.30 ZM 822.34 607.01 C820.75,601.52 818.79,596.11 816.46,590.81 C818.02,594.28 819.39,597.74 820.54,601.12 C821.14,602.90 821.75,604.90 822.34,607.01 Z"
       fill="rgb(180,201,96)"
       id="path3" />
  </g>
</svg>
